# xmcd CD database file
#
# Track frame offsets:
#	150
#	15609
#	31050
#	47728
#	68059
#	86587
#	102207
#	121528
#	144526
#	161675
#	176554
#	201442
#
# Disc length: 2827 seconds
#
# Revision: 2
# Processed by: cddbd v1.5.2PL0 Copyright (c) Steve Scherf et al.
# Submitted via: ACXtractor (MTCDDB.DLL V2003.12.21)
#
DISCID=970b090c
DTITLE=FM LÆTI - It will all come around
DYEAR=2011
DGENRE=Pop-Folk
TTITLE0=Rise In The Sun
TTITLE1=Out Of My Hands
TTITLE2=I Got The Boogie
TTITLE3=Is It Something New?
TTITLE4=It Will All Come Around
TTITLE5=Boy
TTITLE6=Sunken Dream
TTITLE7=Show Me The Way
TTITLE8=Coco
TTITLE9=Gimme Love And Truth
TTITLE10=Sunshine On My Face
TTITLE11=Iwaca
EXTD=2011 Pigalle Production,  France ID3G:  53 YEAR: 2011
EXTT0=
EXTT1=
EXTT2=
EXTT3=
EXTT4=
EXTT5=
EXTT6=
EXTT7=
EXTT8=
EXTT9=
EXTT10=
EXTT11=
PLAYORDER=
